<svg xmlns="http://www.w3.org/2000/svg" viewBox="0 0 1101.87 515.44"><defs><style>.cls-1{isolation:isolate;}.cls-2{font-size:21.87px;font-family:HelveticaNeue-Bold, Helvetica Neue;font-weight:700;}.cls-3{font-size:17.43px;font-family:HelveticaNeueLTStd-Lt, Helvetica Neue LT Std;}.cls-3,.cls-7{letter-spacing:0.03em;}.cls-4{letter-spacing:0.03em;}.cls-5{letter-spacing:0.01em;}.cls-6{letter-spacing:0.01em;}.cls-8{letter-spacing:-0.08em;}.cls-9{fill:#e2e2e2;mix-blend-mode:multiply;}.cls-10{fill:#f0f0f0;}.cls-10,.cls-11,.cls-12,.cls-13,.cls-14,.cls-15{stroke:#000;stroke-miterlimit:10;}.cls-11{fill:#848484;}.cls-12{fill:#d6d6d6;}.cls-13{fill:#bdbdbd;}.cls-15{fill:#fff;}</style></defs><g class="cls-1"><g id="OBJECTS"><text class="cls-2" transform="translate(375.94 409.14)">Ups! No pude encontrar la página</text><text class="cls-3" transform="translate(409.28 449.3)">Estoy convencida de que la página <tspan class="cls-4"><tspan x="-36.77" y="20.92">debería estar acá, pe</tspan><tspan class="cls-5" x="132.04" y="20.92">r</tspan><tspan x="137.7" y="20.92">o se ve que se pe</tspan><tspan class="cls-6" x="279.35" y="20.92">r</tspan><tspan class="cls-7" x="285.02" y="20.92">dió. </tspan></tspan><tspan class="cls-8"><tspan x="69.79" y="41.83">T</tspan><tspan class="cls-4" x="78.03" y="41.83">e pido disculpas.</tspan></tspan></text></g><g id="DESIGNED_BY_FREEPIK" data-name="DESIGNED BY FREEPIK"><ellipse class="cls-9" cx="555.79" cy="343.07" rx="125.62" ry="7.49"/><path class="cls-10" d="M433.26,273.65v25.71a4.48,4.48,0,0,0,4.47,4.47H673.86a4.48,4.48,0,0,0,4.47-4.47V273.65Z"/><path class="cls-11" d="M678.33,131.68a4.48,4.48,0,0,0-4.47-4.46H437.73a4.48,4.48,0,0,0-4.47,4.46v142H678.33Z"/><rect class="cls-12" x="514.16" y="303.82" width="84.29" height="25.88"/><rect class="cls-10" x="493.91" y="329.71" width="123.65" height="12.12"/><rect class="cls-13" x="514.16" y="303.82" width="84.29" height="9.35"/><rect class="cls-14" x="445.93" y="139.96" width="219.78" height="120.59"/><polygon class="cls-15" points="532.5 163.62 517.2 178.91 501.91 163.62 495.79 169.74 511.09 185.03 495.79 200.32 501.91 206.44 517.2 191.15 532.5 206.44 538.62 200.32 523.32 185.03 538.62 169.74 532.5 163.62"/><polygon class="cls-15" points="615.79 169.74 609.67 163.62 594.38 178.91 579.09 163.62 572.97 169.74 588.26 185.03 572.97 200.32 579.09 206.44 594.38 191.15 609.67 206.44 615.79 200.32 600.5 185.03 615.79 169.74"/><path class="cls-15" d="M588.55,243.8c-32.36-22.34-65.14-.22-65.47,0l-4.25-6.14c.37-.26,37.41-25.25,74,0Z"/><path class="cls-15" d="M756.59,74.49H645.79a5,5,0,0,0-5,5V151a5,5,0,0,0,5,5h12.83L646,179.94,688.6,156h68a5,5,0,0,0,5-5V79.47A5,5,0,0,0,756.59,74.49Z"/><path d="M674.38,106.15h-12.5V89.22h12.33v2h-10v5.18h9.26v2h-9.26v5.66h10.21Z"/><path d="M679.94,106.15h-2.29V89.22h7.83c2.78,0,5.56,1,5.56,4.55a4.16,4.16,0,0,1-2.35,4c1,.41,1.93.83,2,3.19l.14,3.06c0,1,.15,1.3.85,1.7v.38h-2.8a20.81,20.81,0,0,1-.4-4.25c0-1.39-.28-3-3-3h-5.54Zm0-9.22h5.3c1.68,0,3.45-.43,3.45-2.92s-1.91-2.83-3.05-2.83h-5.7Z"/><path d="M697,106.15h-2.29V89.22h7.83c2.78,0,5.57,1,5.57,4.55a4.16,4.16,0,0,1-2.36,4c1,.41,1.93.83,2,3.19l.14,3.06c0,1,.14,1.3.85,1.7v.38h-2.81a20.81,20.81,0,0,1-.4-4.25c0-1.39-.28-3-3-3H697Zm0-9.22h5.31c1.67,0,3.44-.43,3.44-2.92s-1.91-2.83-3-2.83H697Z"/><path d="M718.32,106.6c-6.32,0-8.25-5.26-8.25-8.92s1.93-8.91,8.25-8.91,8.25,5.26,8.25,8.91S724.64,106.6,718.32,106.6Zm0-15.8c-3.68,0-5.89,2.9-5.89,6.88s2.21,6.89,5.89,6.89,5.9-2.9,5.9-6.89S722,90.8,718.32,90.8Z"/><path d="M731.85,106.15h-2.28V89.22h7.82c2.79,0,5.57,1,5.57,4.55a4.16,4.16,0,0,1-2.36,4c1,.41,1.93.83,2,3.19l.14,3.06c0,1,.14,1.3.85,1.7v.38h-2.81a20.81,20.81,0,0,1-.4-4.25c0-1.39-.28-3-3-3h-5.54Zm0-9.22h5.31c1.67,0,3.44-.43,3.44-2.92s-1.91-2.83-3-2.83h-5.71Z"/><path d="M661.25,131l13.93-16.56h8.22v17.06h3.72V138H683.4v6.22H675V138H661.25Zm6.65.5H675v-9.1Z"/><path d="M702.58,114c7.75,0,12.92,5.13,12.92,15,0,8.51-3.26,15.88-12.92,15.88s-13-7.28-13-15.84C689.66,118.09,695.76,114,702.58,114Zm4.11,15.5c0-3.13.17-8.89-4.19-8.89-4,0-4.07,6.14-4.07,9,0,5.21.81,8.72,4.15,8.72C705.72,138.29,706.69,134.48,706.69,129.48Z"/><path d="M717.74,131l13.94-16.56h8.21v17.06h3.73V138h-3.73v6.22h-8.38V138H717.74Zm6.65.5h7.12v-9.1Z"/></g></g></svg>