<svg width="345" height="249" viewBox="0 0 345 249" fill="none" xmlns="http://www.w3.org/2000/svg">
<rect width="345" height="249" fill="white"/>
<path d="M43.2188 101.484H45.625V110.93H51.3281V113H43.2188V101.484ZM55.0938 113H52.8672V101.484H55.0938V113ZM61.9688 108.859C61.8281 108.948 61.6849 109.021 61.5391 109.078C61.3984 109.13 61.2031 109.18 60.9531 109.227L60.4531 109.32C59.9844 109.404 59.6484 109.505 59.4453 109.625C59.1016 109.828 58.9297 110.143 58.9297 110.57C58.9297 110.951 59.0339 111.227 59.2422 111.398C59.4557 111.565 59.7135 111.648 60.0156 111.648C60.4948 111.648 60.9349 111.508 61.3359 111.227C61.7422 110.945 61.9531 110.432 61.9688 109.688V108.859ZM60.6172 107.82C61.0286 107.768 61.3229 107.703 61.5 107.625C61.8177 107.49 61.9766 107.279 61.9766 106.992C61.9766 106.643 61.8542 106.404 61.6094 106.273C61.3698 106.138 61.0156 106.07 60.5469 106.07C60.0208 106.07 59.6484 106.201 59.4297 106.461C59.2734 106.654 59.1693 106.914 59.1172 107.242H56.9688C57.0156 106.497 57.224 105.885 57.5938 105.406C58.1823 104.656 59.1927 104.281 60.625 104.281C61.5573 104.281 62.3854 104.466 63.1094 104.836C63.8333 105.206 64.1953 105.904 64.1953 106.93V110.836C64.1953 111.107 64.2005 111.435 64.2109 111.82C64.2266 112.112 64.2708 112.31 64.3438 112.414C64.4167 112.518 64.526 112.604 64.6719 112.672V113H62.25C62.1823 112.828 62.1354 112.667 62.1094 112.516C62.0833 112.365 62.0625 112.193 62.0469 112C61.7396 112.333 61.3854 112.617 60.9844 112.852C60.5052 113.128 59.9635 113.266 59.3594 113.266C58.5885 113.266 57.9505 113.047 57.4453 112.609C56.9453 112.167 56.6953 111.542 56.6953 110.734C56.6953 109.688 57.099 108.93 57.9062 108.461C58.349 108.206 59 108.023 59.8594 107.914L60.6172 107.82ZM75.6953 104.297C76.0703 104.297 76.4401 104.37 76.8047 104.516C77.1693 104.661 77.5 104.917 77.7969 105.281C78.0365 105.578 78.1979 105.943 78.2812 106.375C78.3333 106.661 78.3594 107.081 78.3594 107.633L78.3438 113H76.0625V107.578C76.0625 107.255 76.0104 106.99 75.9062 106.781C75.7083 106.385 75.3438 106.188 74.8125 106.188C74.1979 106.188 73.7734 106.443 73.5391 106.953C73.4193 107.224 73.3594 107.549 73.3594 107.93V113H71.1172V107.93C71.1172 107.424 71.0651 107.057 70.9609 106.828C70.7734 106.417 70.4062 106.211 69.8594 106.211C69.224 106.211 68.7969 106.417 68.5781 106.828C68.4583 107.062 68.3984 107.411 68.3984 107.875V113H66.1406V104.5H68.3047V105.742C68.5807 105.299 68.8411 104.984 69.0859 104.797C69.5182 104.464 70.0781 104.297 70.7656 104.297C71.4167 104.297 71.9427 104.44 72.3438 104.727C72.6667 104.992 72.9115 105.333 73.0781 105.75C73.3698 105.25 73.7318 104.883 74.1641 104.648C74.6224 104.414 75.1328 104.297 75.6953 104.297ZM85.1094 108.859C84.9688 108.948 84.8255 109.021 84.6797 109.078C84.5391 109.13 84.3438 109.18 84.0938 109.227L83.5938 109.32C83.125 109.404 82.7891 109.505 82.5859 109.625C82.2422 109.828 82.0703 110.143 82.0703 110.57C82.0703 110.951 82.1745 111.227 82.3828 111.398C82.5964 111.565 82.8542 111.648 83.1562 111.648C83.6354 111.648 84.0755 111.508 84.4766 111.227C84.8828 110.945 85.0938 110.432 85.1094 109.688V108.859ZM83.7578 107.82C84.1693 107.768 84.4635 107.703 84.6406 107.625C84.9583 107.49 85.1172 107.279 85.1172 106.992C85.1172 106.643 84.9948 106.404 84.75 106.273C84.5104 106.138 84.1562 106.07 83.6875 106.07C83.1615 106.07 82.7891 106.201 82.5703 106.461C82.4141 106.654 82.3099 106.914 82.2578 107.242H80.1094C80.1562 106.497 80.3646 105.885 80.7344 105.406C81.3229 104.656 82.3333 104.281 83.7656 104.281C84.6979 104.281 85.526 104.466 86.25 104.836C86.974 105.206 87.3359 105.904 87.3359 106.93V110.836C87.3359 111.107 87.3411 111.435 87.3516 111.82C87.3672 112.112 87.4115 112.31 87.4844 112.414C87.5573 112.518 87.6667 112.604 87.8125 112.672V113H85.3906C85.3229 112.828 85.276 112.667 85.25 112.516C85.224 112.365 85.2031 112.193 85.1875 112C84.8802 112.333 84.526 112.617 84.125 112.852C83.6458 113.128 83.1042 113.266 82.5 113.266C81.7292 113.266 81.0911 113.047 80.5859 112.609C80.0859 112.167 79.8359 111.542 79.8359 110.734C79.8359 109.688 80.2396 108.93 81.0469 108.461C81.4896 108.206 82.1406 108.023 83 107.914L83.7578 107.82ZM98.8359 104.297C99.2109 104.297 99.5807 104.37 99.9453 104.516C100.31 104.661 100.641 104.917 100.938 105.281C101.177 105.578 101.339 105.943 101.422 106.375C101.474 106.661 101.5 107.081 101.5 107.633L101.484 113H99.2031V107.578C99.2031 107.255 99.151 106.99 99.0469 106.781C98.849 106.385 98.4844 106.188 97.9531 106.188C97.3385 106.188 96.9141 106.443 96.6797 106.953C96.5599 107.224 96.5 107.549 96.5 107.93V113H94.2578V107.93C94.2578 107.424 94.2057 107.057 94.1016 106.828C93.9141 106.417 93.5469 106.211 93 106.211C92.3646 106.211 91.9375 106.417 91.7188 106.828C91.599 107.062 91.5391 107.411 91.5391 107.875V113H89.2812V104.5H91.4453V105.742C91.7214 105.299 91.9818 104.984 92.2266 104.797C92.6589 104.464 93.2188 104.297 93.9062 104.297C94.5573 104.297 95.0833 104.44 95.4844 104.727C95.8073 104.992 96.0521 105.333 96.2188 105.75C96.5104 105.25 96.8724 104.883 97.3047 104.648C97.763 104.414 98.2734 104.297 98.8359 104.297ZM106.914 106.094C106.398 106.094 105.997 106.255 105.711 106.578C105.43 106.901 105.253 107.339 105.18 107.891H108.641C108.604 107.302 108.424 106.857 108.102 106.555C107.784 106.247 107.388 106.094 106.914 106.094ZM106.914 104.258C107.622 104.258 108.26 104.391 108.828 104.656C109.396 104.922 109.865 105.341 110.234 105.914C110.568 106.419 110.784 107.005 110.883 107.672C110.94 108.062 110.964 108.625 110.953 109.359H105.125C105.156 110.214 105.424 110.812 105.93 111.156C106.237 111.37 106.607 111.477 107.039 111.477C107.497 111.477 107.87 111.346 108.156 111.086C108.312 110.945 108.451 110.75 108.57 110.5H110.844C110.786 111.005 110.523 111.518 110.055 112.039C109.326 112.867 108.305 113.281 106.992 113.281C105.909 113.281 104.953 112.932 104.125 112.234C103.297 111.536 102.883 110.401 102.883 108.828C102.883 107.354 103.255 106.224 104 105.438C104.75 104.651 105.721 104.258 106.914 104.258ZM113.18 101.523H115.625V104.445L114.992 109.82H113.828L113.18 104.445V101.523ZM113.234 110.742H115.562V113H113.234V110.742ZM42.6289 132.006V130.857H45.6094V127.856H46.7783V130.857H49.7588V132.006H46.7783V135H45.6094V132.006H42.6289ZM51.9053 132.505C51.9873 133.207 52.3132 133.692 52.8828 133.961C53.1745 134.098 53.5117 134.166 53.8945 134.166C54.6237 134.166 55.1637 133.934 55.5146 133.469C55.8656 133.004 56.041 132.489 56.041 131.924C56.041 131.24 55.8314 130.712 55.4121 130.338C54.9974 129.964 54.4984 129.777 53.915 129.777C53.4912 129.777 53.1266 129.859 52.8213 130.023C52.5205 130.188 52.263 130.415 52.0488 130.707L50.9824 130.646L51.7275 125.375H56.8135V126.564H52.6504L52.2334 129.285C52.4613 129.112 52.6777 128.982 52.8828 128.896C53.2474 128.745 53.6689 128.67 54.1475 128.67C55.0452 128.67 55.8063 128.959 56.4307 129.538C57.055 130.117 57.3672 130.851 57.3672 131.739C57.3672 132.664 57.0801 133.48 56.5059 134.187C55.9362 134.893 55.0247 135.246 53.7715 135.246C52.974 135.246 52.2676 135.023 51.6523 134.576C51.0417 134.125 50.6999 133.435 50.627 132.505H51.9053ZM62.5967 131.534V127.098L59.459 131.534H62.5967ZM62.6172 135V132.607H58.3242V131.404L62.8086 125.184H63.8477V131.534H65.29V132.607H63.8477V135H62.6172ZM69.3984 135.267C68.2409 135.267 67.4001 134.95 66.876 134.316C66.3564 133.678 66.0967 132.904 66.0967 131.992H67.3818C67.4365 132.626 67.555 133.086 67.7373 133.373C68.0563 133.888 68.6328 134.146 69.4668 134.146C70.1139 134.146 70.6335 133.972 71.0254 133.626C71.4173 133.28 71.6133 132.833 71.6133 132.286C71.6133 131.612 71.4059 131.14 70.9912 130.871C70.5811 130.602 70.0091 130.468 69.2754 130.468C69.1934 130.468 69.109 130.47 69.0225 130.475C68.9404 130.475 68.8561 130.477 68.7695 130.481V129.395C68.8971 129.408 69.0042 129.417 69.0908 129.422C69.1774 129.426 69.2708 129.429 69.3711 129.429C69.8314 129.429 70.2096 129.356 70.5059 129.21C71.0254 128.955 71.2852 128.499 71.2852 127.843C71.2852 127.355 71.112 126.979 70.7656 126.715C70.4193 126.451 70.016 126.318 69.5557 126.318C68.7354 126.318 68.168 126.592 67.8535 127.139C67.6803 127.439 67.5824 127.868 67.5596 128.424H66.3428C66.3428 127.695 66.4886 127.075 66.7803 126.564C67.2816 125.653 68.1634 125.197 69.4258 125.197C70.4238 125.197 71.1963 125.421 71.7432 125.867C72.29 126.309 72.5635 126.952 72.5635 127.795C72.5635 128.396 72.4017 128.884 72.0781 129.258C71.8776 129.49 71.6178 129.673 71.2988 129.805C71.8138 129.946 72.2148 130.219 72.502 130.625C72.7936 131.026 72.9395 131.518 72.9395 132.102C72.9395 133.036 72.6318 133.797 72.0166 134.385C71.4014 134.973 70.5286 135.267 69.3984 135.267ZM78.1826 131.534V127.098L75.0449 131.534H78.1826ZM78.2031 135V132.607H73.9102V131.404L78.3945 125.184H79.4336V131.534H80.876V132.607H79.4336V135H78.2031ZM81.7852 135C81.8307 134.157 82.0039 133.423 82.3047 132.799C82.61 132.174 83.2025 131.607 84.082 131.097L85.3945 130.338C85.9824 129.996 86.3949 129.704 86.6318 129.463C87.0055 129.085 87.1924 128.652 87.1924 128.164C87.1924 127.594 87.0215 127.143 86.6797 126.811C86.3379 126.473 85.8822 126.305 85.3125 126.305C84.4694 126.305 83.8861 126.624 83.5625 127.262C83.3893 127.604 83.2936 128.077 83.2754 128.684H82.0244C82.0381 127.831 82.1953 127.136 82.4961 126.599C83.0293 125.651 83.9704 125.177 85.3193 125.177C86.4404 125.177 87.2585 125.48 87.7734 126.086C88.293 126.692 88.5527 127.367 88.5527 128.109C88.5527 128.893 88.277 129.563 87.7256 130.119C87.4066 130.443 86.8346 130.835 86.0098 131.295L85.0732 131.814C84.6266 132.061 84.2757 132.295 84.0205 132.519C83.5648 132.915 83.2777 133.355 83.1592 133.838H88.5049V135H81.7852ZM93.7686 131.534V127.098L90.6309 131.534H93.7686ZM93.7891 135V132.607H89.4961V131.404L93.9805 125.184H95.0195V131.534H96.4619V132.607H95.0195V135H93.7891ZM104.255 125.375V126.448C103.94 126.754 103.521 127.285 102.997 128.041C102.478 128.798 102.017 129.613 101.616 130.488C101.22 131.34 100.919 132.118 100.714 132.819C100.582 133.271 100.411 133.997 100.201 135H98.8408C99.1507 133.132 99.8343 131.272 100.892 129.422C101.516 128.337 102.172 127.401 102.86 126.612H97.4463V125.375H104.255ZM108.363 135.267C107.206 135.267 106.365 134.95 105.841 134.316C105.321 133.678 105.062 132.904 105.062 131.992H106.347C106.401 132.626 106.52 133.086 106.702 133.373C107.021 133.888 107.598 134.146 108.432 134.146C109.079 134.146 109.598 133.972 109.99 133.626C110.382 133.28 110.578 132.833 110.578 132.286C110.578 131.612 110.371 131.14 109.956 130.871C109.546 130.602 108.974 130.468 108.24 130.468C108.158 130.468 108.074 130.47 107.987 130.475C107.905 130.475 107.821 130.477 107.734 130.481V129.395C107.862 129.408 107.969 129.417 108.056 129.422C108.142 129.426 108.236 129.429 108.336 129.429C108.796 129.429 109.174 129.356 109.471 129.21C109.99 128.955 110.25 128.499 110.25 127.843C110.25 127.355 110.077 126.979 109.73 126.715C109.384 126.451 108.981 126.318 108.521 126.318C107.7 126.318 107.133 126.592 106.818 127.139C106.645 127.439 106.547 127.868 106.524 128.424H105.308C105.308 127.695 105.453 127.075 105.745 126.564C106.246 125.653 107.128 125.197 108.391 125.197C109.389 125.197 110.161 125.421 110.708 125.867C111.255 126.309 111.528 126.952 111.528 127.795C111.528 128.396 111.367 128.884 111.043 129.258C110.842 129.49 110.583 129.673 110.264 129.805C110.779 129.946 111.18 130.219 111.467 130.625C111.758 131.026 111.904 131.518 111.904 132.102C111.904 133.036 111.597 133.797 110.981 134.385C110.366 134.973 109.493 135.267 108.363 135.267ZM117.147 131.534V127.098L114.01 131.534H117.147ZM117.168 135V132.607H112.875V131.404L117.359 125.184H118.398V131.534H119.841V132.607H118.398V135H117.168ZM124.94 131.534V127.098L121.803 131.534H124.94ZM124.961 135V132.607H120.668V131.404L125.152 125.184H126.191V131.534H127.634V132.607H126.191V135H124.961ZM131.913 129.312C132.455 129.312 132.879 129.162 133.185 128.861C133.49 128.556 133.643 128.194 133.643 127.774C133.643 127.41 133.497 127.075 133.205 126.77C132.913 126.464 132.469 126.312 131.872 126.312C131.28 126.312 130.851 126.464 130.587 126.77C130.323 127.075 130.19 127.433 130.19 127.843C130.19 128.303 130.361 128.663 130.703 128.923C131.045 129.183 131.448 129.312 131.913 129.312ZM131.988 134.159C132.558 134.159 133.03 134.007 133.403 133.701C133.782 133.391 133.971 132.931 133.971 132.32C133.971 131.687 133.777 131.206 133.39 130.878C133.002 130.55 132.506 130.386 131.899 130.386C131.312 130.386 130.831 130.554 130.457 130.892C130.088 131.224 129.903 131.687 129.903 132.279C129.903 132.79 130.072 133.232 130.409 133.605C130.751 133.975 131.277 134.159 131.988 134.159ZM130.238 129.784C129.896 129.638 129.63 129.467 129.438 129.271C129.078 128.907 128.898 128.433 128.898 127.85C128.898 127.12 129.163 126.494 129.691 125.97C130.22 125.446 130.97 125.184 131.94 125.184C132.879 125.184 133.615 125.432 134.148 125.929C134.682 126.421 134.948 126.997 134.948 127.658C134.948 128.269 134.793 128.763 134.483 129.142C134.31 129.356 134.041 129.565 133.677 129.771C134.082 129.957 134.401 130.172 134.634 130.413C135.067 130.869 135.283 131.461 135.283 132.19C135.283 133.052 134.994 133.783 134.415 134.385C133.836 134.982 133.018 135.28 131.961 135.28C131.008 135.28 130.202 135.023 129.541 134.508C128.885 133.988 128.557 133.236 128.557 132.252C128.557 131.673 128.698 131.174 128.98 130.755C129.263 130.331 129.682 130.007 130.238 129.784ZM139.706 129.312C140.248 129.312 140.672 129.162 140.978 128.861C141.283 128.556 141.436 128.194 141.436 127.774C141.436 127.41 141.29 127.075 140.998 126.77C140.706 126.464 140.262 126.312 139.665 126.312C139.073 126.312 138.644 126.464 138.38 126.77C138.116 127.075 137.983 127.433 137.983 127.843C137.983 128.303 138.154 128.663 138.496 128.923C138.838 129.183 139.241 129.312 139.706 129.312ZM139.781 134.159C140.351 134.159 140.823 134.007 141.196 133.701C141.575 133.391 141.764 132.931 141.764 132.32C141.764 131.687 141.57 131.206 141.183 130.878C140.795 130.55 140.299 130.386 139.692 130.386C139.104 130.386 138.624 130.554 138.25 130.892C137.881 131.224 137.696 131.687 137.696 132.279C137.696 132.79 137.865 133.232 138.202 133.605C138.544 133.975 139.07 134.159 139.781 134.159ZM138.031 129.784C137.689 129.638 137.423 129.467 137.231 129.271C136.871 128.907 136.691 128.433 136.691 127.85C136.691 127.12 136.956 126.494 137.484 125.97C138.013 125.446 138.763 125.184 139.733 125.184C140.672 125.184 141.408 125.432 141.941 125.929C142.475 126.421 142.741 126.997 142.741 127.658C142.741 128.269 142.586 128.763 142.276 129.142C142.103 129.356 141.834 129.565 141.47 129.771C141.875 129.957 142.194 130.172 142.427 130.413C142.86 130.869 143.076 131.461 143.076 132.19C143.076 133.052 142.787 133.783 142.208 134.385C141.629 134.982 140.811 135.28 139.754 135.28C138.801 135.28 137.995 135.023 137.334 134.508C136.678 133.988 136.35 133.236 136.35 132.252C136.35 131.673 136.491 131.174 136.773 130.755C137.056 130.331 137.475 130.007 138.031 129.784ZM46.8594 181.43C47.5104 181.43 48.0104 181.198 48.3594 180.734C48.7083 180.271 48.8828 179.612 48.8828 178.758C48.8828 177.904 48.7083 177.247 48.3594 176.789C48.0104 176.326 47.5104 176.094 46.8594 176.094C46.2083 176.094 45.7057 176.326 45.3516 176.789C45.0026 177.247 44.8281 177.904 44.8281 178.758C44.8281 179.612 45.0026 180.271 45.3516 180.734C45.7057 181.198 46.2083 181.43 46.8594 181.43ZM51.2188 178.758C51.2188 180.008 50.8594 181.078 50.1406 181.969C49.4219 182.854 48.3307 183.297 46.8672 183.297C45.4036 183.297 44.3125 182.854 43.5938 181.969C42.875 181.078 42.5156 180.008 42.5156 178.758C42.5156 177.529 42.875 176.464 43.5938 175.562C44.3125 174.661 45.4036 174.211 46.8672 174.211C48.3307 174.211 49.4219 174.661 50.1406 175.562C50.8594 176.464 51.2188 177.529 51.2188 178.758ZM56.3984 176.148V174.562H57.5859V172.188H59.7891V174.562H61.1719V176.148H59.7891V180.648C59.7891 180.997 59.8333 181.216 59.9219 181.305C60.0104 181.388 60.2812 181.43 60.7344 181.43C60.8021 181.43 60.8724 181.43 60.9453 181.43C61.0234 181.424 61.099 181.419 61.1719 181.414V183.078L60.1172 183.117C59.0651 183.154 58.3464 182.971 57.9609 182.57C57.7109 182.315 57.5859 181.922 57.5859 181.391V176.148H56.3984ZM65.9609 176.094C65.4453 176.094 65.0443 176.255 64.7578 176.578C64.4766 176.901 64.2995 177.339 64.2266 177.891H67.6875C67.651 177.302 67.4714 176.857 67.1484 176.555C66.8307 176.247 66.4349 176.094 65.9609 176.094ZM65.9609 174.258C66.6693 174.258 67.3073 174.391 67.875 174.656C68.4427 174.922 68.9115 175.341 69.2812 175.914C69.6146 176.419 69.8307 177.005 69.9297 177.672C69.987 178.062 70.0104 178.625 70 179.359H64.1719C64.2031 180.214 64.4714 180.812 64.9766 181.156C65.2839 181.37 65.6536 181.477 66.0859 181.477C66.5443 181.477 66.9167 181.346 67.2031 181.086C67.3594 180.945 67.4974 180.75 67.6172 180.5H69.8906C69.8333 181.005 69.5703 181.518 69.1016 182.039C68.3724 182.867 67.3516 183.281 66.0391 183.281C64.9557 183.281 64 182.932 63.1719 182.234C62.3438 181.536 61.9297 180.401 61.9297 178.828C61.9297 177.354 62.3021 176.224 63.0469 175.438C63.7969 174.651 64.7682 174.258 65.9609 174.258ZM76.2266 174.281C77.1068 174.281 77.8255 174.513 78.3828 174.977C78.9453 175.435 79.2266 176.198 79.2266 177.266V183H76.9453V177.82C76.9453 177.372 76.8854 177.029 76.7656 176.789C76.5469 176.352 76.1302 176.133 75.5156 176.133C74.7604 176.133 74.2422 176.453 73.9609 177.094C73.8151 177.432 73.7422 177.865 73.7422 178.391V183H71.5234V174.5H73.6719V175.742C73.9583 175.305 74.2292 174.99 74.4844 174.797C74.9427 174.453 75.5234 174.281 76.2266 174.281ZM84.9453 181.172C85.4661 181.172 85.9062 180.977 86.2656 180.586C86.625 180.19 86.8047 179.562 86.8047 178.703C86.8047 177.896 86.6328 177.281 86.2891 176.859C85.9505 176.438 85.4948 176.227 84.9219 176.227C84.1406 176.227 83.6016 176.594 83.3047 177.328C83.1484 177.719 83.0703 178.201 83.0703 178.773C83.0703 179.268 83.1536 179.708 83.3203 180.094C83.6224 180.812 84.1641 181.172 84.9453 181.172ZM84.3906 174.281C84.8177 174.281 85.1901 174.346 85.5078 174.477C86.0495 174.701 86.487 175.112 86.8203 175.711V174.484H88.9844V182.562C88.9844 183.661 88.7995 184.49 88.4297 185.047C87.7943 186.005 86.5755 186.484 84.7734 186.484C83.6849 186.484 82.7969 186.271 82.1094 185.844C81.4219 185.417 81.0417 184.779 80.9688 183.93H83.3906C83.4531 184.19 83.5547 184.378 83.6953 184.492C83.9349 184.695 84.3385 184.797 84.9062 184.797C85.7083 184.797 86.2448 184.529 86.5156 183.992C86.6927 183.648 86.7812 183.07 86.7812 182.258V181.711C86.5677 182.076 86.3385 182.349 86.0938 182.531C85.651 182.87 85.0755 183.039 84.3672 183.039C83.2734 183.039 82.3984 182.656 81.7422 181.891C81.0911 181.12 80.7656 180.078 80.7656 178.766C80.7656 177.5 81.0807 176.438 81.7109 175.578C82.3411 174.714 83.2344 174.281 84.3906 174.281ZM95.7656 178.859C95.625 178.948 95.4818 179.021 95.3359 179.078C95.1953 179.13 95 179.18 94.75 179.227L94.25 179.32C93.7812 179.404 93.4453 179.505 93.2422 179.625C92.8984 179.828 92.7266 180.143 92.7266 180.57C92.7266 180.951 92.8307 181.227 93.0391 181.398C93.2526 181.565 93.5104 181.648 93.8125 181.648C94.2917 181.648 94.7318 181.508 95.1328 181.227C95.5391 180.945 95.75 180.432 95.7656 179.688V178.859ZM94.4141 177.82C94.8255 177.768 95.1198 177.703 95.2969 177.625C95.6146 177.49 95.7734 177.279 95.7734 176.992C95.7734 176.643 95.651 176.404 95.4062 176.273C95.1667 176.138 94.8125 176.07 94.3438 176.07C93.8177 176.07 93.4453 176.201 93.2266 176.461C93.0703 176.654 92.9661 176.914 92.9141 177.242H90.7656C90.8125 176.497 91.0208 175.885 91.3906 175.406C91.9792 174.656 92.9896 174.281 94.4219 174.281C95.3542 174.281 96.1823 174.466 96.9062 174.836C97.6302 175.206 97.9922 175.904 97.9922 176.93V180.836C97.9922 181.107 97.9974 181.435 98.0078 181.82C98.0234 182.112 98.0677 182.31 98.1406 182.414C98.2135 182.518 98.3229 182.604 98.4688 182.672V183H96.0469C95.9792 182.828 95.9323 182.667 95.9062 182.516C95.8802 182.365 95.8594 182.193 95.8438 182C95.5365 182.333 95.1823 182.617 94.7812 182.852C94.3021 183.128 93.7604 183.266 93.1562 183.266C92.3854 183.266 91.7474 183.047 91.2422 182.609C90.7422 182.167 90.4922 181.542 90.4922 180.734C90.4922 179.688 90.8958 178.93 91.7031 178.461C92.1458 178.206 92.7969 178.023 93.6562 177.914L94.4141 177.82ZM109.492 174.297C109.867 174.297 110.237 174.37 110.602 174.516C110.966 174.661 111.297 174.917 111.594 175.281C111.833 175.578 111.995 175.943 112.078 176.375C112.13 176.661 112.156 177.081 112.156 177.633L112.141 183H109.859V177.578C109.859 177.255 109.807 176.99 109.703 176.781C109.505 176.385 109.141 176.188 108.609 176.188C107.995 176.188 107.57 176.443 107.336 176.953C107.216 177.224 107.156 177.549 107.156 177.93V183H104.914V177.93C104.914 177.424 104.862 177.057 104.758 176.828C104.57 176.417 104.203 176.211 103.656 176.211C103.021 176.211 102.594 176.417 102.375 176.828C102.255 177.062 102.195 177.411 102.195 177.875V183H99.9375V174.5H102.102V175.742C102.378 175.299 102.638 174.984 102.883 174.797C103.315 174.464 103.875 174.297 104.562 174.297C105.214 174.297 105.74 174.44 106.141 174.727C106.464 174.992 106.708 175.333 106.875 175.75C107.167 175.25 107.529 174.883 107.961 174.648C108.419 174.414 108.93 174.297 109.492 174.297ZM118.031 181.43C118.682 181.43 119.182 181.198 119.531 180.734C119.88 180.271 120.055 179.612 120.055 178.758C120.055 177.904 119.88 177.247 119.531 176.789C119.182 176.326 118.682 176.094 118.031 176.094C117.38 176.094 116.878 176.326 116.523 176.789C116.174 177.247 116 177.904 116 178.758C116 179.612 116.174 180.271 116.523 180.734C116.878 181.198 117.38 181.43 118.031 181.43ZM122.391 178.758C122.391 180.008 122.031 181.078 121.312 181.969C120.594 182.854 119.503 183.297 118.039 183.297C116.576 183.297 115.484 182.854 114.766 181.969C114.047 181.078 113.688 180.008 113.688 178.758C113.688 177.529 114.047 176.464 114.766 175.562C115.484 174.661 116.576 174.211 118.039 174.211C119.503 174.211 120.594 174.661 121.312 175.562C122.031 176.464 122.391 177.529 122.391 178.758ZM125.727 180.281C125.773 180.677 125.875 180.958 126.031 181.125C126.307 181.422 126.818 181.57 127.562 181.57C128 181.57 128.346 181.505 128.602 181.375C128.862 181.245 128.992 181.049 128.992 180.789C128.992 180.539 128.888 180.349 128.68 180.219C128.471 180.089 127.698 179.865 126.359 179.547C125.396 179.307 124.716 179.008 124.32 178.648C123.924 178.294 123.727 177.784 123.727 177.117C123.727 176.331 124.034 175.656 124.648 175.094C125.268 174.526 126.138 174.242 127.258 174.242C128.32 174.242 129.185 174.456 129.852 174.883C130.523 175.305 130.909 176.036 131.008 177.078H128.781C128.75 176.792 128.669 176.565 128.539 176.398C128.294 176.096 127.878 175.945 127.289 175.945C126.805 175.945 126.458 176.021 126.25 176.172C126.047 176.323 125.945 176.5 125.945 176.703C125.945 176.958 126.055 177.143 126.273 177.258C126.492 177.378 127.266 177.583 128.594 177.875C129.479 178.083 130.143 178.398 130.586 178.82C131.023 179.247 131.242 179.781 131.242 180.422C131.242 181.266 130.927 181.956 130.297 182.492C129.672 183.023 128.703 183.289 127.391 183.289C126.052 183.289 125.062 183.008 124.422 182.445C123.786 181.878 123.469 181.156 123.469 180.281H125.727ZM139.57 174.484V179.617C139.57 180.102 139.628 180.466 139.742 180.711C139.945 181.143 140.344 181.359 140.938 181.359C141.698 181.359 142.219 181.052 142.5 180.438C142.646 180.104 142.719 179.664 142.719 179.117V174.484H144.977V183H142.812V181.797C142.792 181.823 142.74 181.901 142.656 182.031C142.573 182.161 142.474 182.276 142.359 182.375C142.01 182.688 141.672 182.901 141.344 183.016C141.021 183.13 140.641 183.188 140.203 183.188C138.943 183.188 138.094 182.734 137.656 181.828C137.411 181.328 137.289 180.591 137.289 179.617V174.484H139.57ZM151.852 174.281C152.732 174.281 153.451 174.513 154.008 174.977C154.57 175.435 154.852 176.198 154.852 177.266V183H152.57V177.82C152.57 177.372 152.51 177.029 152.391 176.789C152.172 176.352 151.755 176.133 151.141 176.133C150.385 176.133 149.867 176.453 149.586 177.094C149.44 177.432 149.367 177.865 149.367 178.391V183H147.148V174.5H149.297V175.742C149.583 175.305 149.854 174.99 150.109 174.797C150.568 174.453 151.148 174.281 151.852 174.281ZM161.609 178.859C161.469 178.948 161.326 179.021 161.18 179.078C161.039 179.13 160.844 179.18 160.594 179.227L160.094 179.32C159.625 179.404 159.289 179.505 159.086 179.625C158.742 179.828 158.57 180.143 158.57 180.57C158.57 180.951 158.674 181.227 158.883 181.398C159.096 181.565 159.354 181.648 159.656 181.648C160.135 181.648 160.576 181.508 160.977 181.227C161.383 180.945 161.594 180.432 161.609 179.688V178.859ZM160.258 177.82C160.669 177.768 160.964 177.703 161.141 177.625C161.458 177.49 161.617 177.279 161.617 176.992C161.617 176.643 161.495 176.404 161.25 176.273C161.01 176.138 160.656 176.07 160.188 176.07C159.661 176.07 159.289 176.201 159.07 176.461C158.914 176.654 158.81 176.914 158.758 177.242H156.609C156.656 176.497 156.865 175.885 157.234 175.406C157.823 174.656 158.833 174.281 160.266 174.281C161.198 174.281 162.026 174.466 162.75 174.836C163.474 175.206 163.836 175.904 163.836 176.93V180.836C163.836 181.107 163.841 181.435 163.852 181.82C163.867 182.112 163.911 182.31 163.984 182.414C164.057 182.518 164.167 182.604 164.312 182.672V183H161.891C161.823 182.828 161.776 182.667 161.75 182.516C161.724 182.365 161.703 182.193 161.688 182C161.38 182.333 161.026 182.617 160.625 182.852C160.146 183.128 159.604 183.266 159 183.266C158.229 183.266 157.591 183.047 157.086 182.609C156.586 182.167 156.336 181.542 156.336 180.734C156.336 179.688 156.74 178.93 157.547 178.461C157.99 178.206 158.641 178.023 159.5 177.914L160.258 177.82ZM174.898 174.281C174.94 174.281 174.974 174.284 175 174.289C175.031 174.289 175.096 174.292 175.195 174.297V176.578C175.055 176.562 174.93 176.552 174.82 176.547C174.711 176.542 174.622 176.539 174.555 176.539C173.659 176.539 173.057 176.831 172.75 177.414C172.578 177.742 172.492 178.247 172.492 178.93V183H170.25V174.484H172.375V175.969C172.719 175.401 173.018 175.013 173.273 174.805C173.69 174.456 174.232 174.281 174.898 174.281ZM179.867 176.094C179.352 176.094 178.951 176.255 178.664 176.578C178.383 176.901 178.206 177.339 178.133 177.891H181.594C181.557 177.302 181.378 176.857 181.055 176.555C180.737 176.247 180.341 176.094 179.867 176.094ZM179.867 174.258C180.576 174.258 181.214 174.391 181.781 174.656C182.349 174.922 182.818 175.341 183.188 175.914C183.521 176.419 183.737 177.005 183.836 177.672C183.893 178.062 183.917 178.625 183.906 179.359H178.078C178.109 180.214 178.378 180.812 178.883 181.156C179.19 181.37 179.56 181.477 179.992 181.477C180.451 181.477 180.823 181.346 181.109 181.086C181.266 180.945 181.404 180.75 181.523 180.5H183.797C183.74 181.005 183.477 181.518 183.008 182.039C182.279 182.867 181.258 183.281 179.945 183.281C178.862 183.281 177.906 182.932 177.078 182.234C176.25 181.536 175.836 180.401 175.836 178.828C175.836 177.354 176.208 176.224 176.953 175.438C177.703 174.651 178.674 174.258 179.867 174.258ZM187.633 174.484V179.617C187.633 180.102 187.69 180.466 187.805 180.711C188.008 181.143 188.406 181.359 189 181.359C189.76 181.359 190.281 181.052 190.562 180.438C190.708 180.104 190.781 179.664 190.781 179.117V174.484H193.039V183H190.875V181.797C190.854 181.823 190.802 181.901 190.719 182.031C190.635 182.161 190.536 182.276 190.422 182.375C190.073 182.688 189.734 182.901 189.406 183.016C189.083 183.13 188.703 183.188 188.266 183.188C187.005 183.188 186.156 182.734 185.719 181.828C185.474 181.328 185.352 180.591 185.352 179.617V174.484H187.633ZM199.914 174.281C200.794 174.281 201.513 174.513 202.07 174.977C202.633 175.435 202.914 176.198 202.914 177.266V183H200.633V177.82C200.633 177.372 200.573 177.029 200.453 176.789C200.234 176.352 199.818 176.133 199.203 176.133C198.448 176.133 197.93 176.453 197.648 177.094C197.503 177.432 197.43 177.865 197.43 178.391V183H195.211V174.5H197.359V175.742C197.646 175.305 197.917 174.99 198.172 174.797C198.63 174.453 199.211 174.281 199.914 174.281ZM207.266 173.469H205.008V171.414H207.266V173.469ZM205.008 174.484H207.266V183H205.008V174.484ZM213.25 181.43C213.901 181.43 214.401 181.198 214.75 180.734C215.099 180.271 215.273 179.612 215.273 178.758C215.273 177.904 215.099 177.247 214.75 176.789C214.401 176.326 213.901 176.094 213.25 176.094C212.599 176.094 212.096 176.326 211.742 176.789C211.393 177.247 211.219 177.904 211.219 178.758C211.219 179.612 211.393 180.271 211.742 180.734C212.096 181.198 212.599 181.43 213.25 181.43ZM217.609 178.758C217.609 180.008 217.25 181.078 216.531 181.969C215.812 182.854 214.721 183.297 213.258 183.297C211.794 183.297 210.703 182.854 209.984 181.969C209.266 181.078 208.906 180.008 208.906 178.758C208.906 177.529 209.266 176.464 209.984 175.562C210.703 174.661 211.794 174.211 213.258 174.211C214.721 174.211 215.812 174.661 216.531 175.562C217.25 176.464 217.609 177.529 217.609 178.758ZM215.922 171L213.547 173.336H211.938L213.438 171H215.922ZM223.93 174.281C224.81 174.281 225.529 174.513 226.086 174.977C226.648 175.435 226.93 176.198 226.93 177.266V183H224.648V177.82C224.648 177.372 224.589 177.029 224.469 176.789C224.25 176.352 223.833 176.133 223.219 176.133C222.464 176.133 221.945 176.453 221.664 177.094C221.518 177.432 221.445 177.865 221.445 178.391V183H219.227V174.5H221.375V175.742C221.661 175.305 221.932 174.99 222.188 174.797C222.646 174.453 223.227 174.281 223.93 174.281ZM229.711 171.523H232.156V174.445L231.523 179.82H230.359L229.711 174.445V171.523ZM229.766 180.742H232.094V183H229.766V180.742ZM43.1006 194.958H44.4746V199.107H49.6973V194.958H51.0713V205H49.6973V200.304H44.4746V205H43.1006V194.958ZM55.9248 204.207C56.7406 204.207 57.2988 203.899 57.5996 203.284C57.9049 202.664 58.0576 201.976 58.0576 201.22C58.0576 200.536 57.9482 199.98 57.7295 199.552C57.3831 198.877 56.7861 198.54 55.9385 198.54C55.1865 198.54 54.6396 198.827 54.2979 199.401C53.9561 199.976 53.7852 200.668 53.7852 201.479C53.7852 202.259 53.9561 202.908 54.2979 203.428C54.6396 203.947 55.182 204.207 55.9248 204.207ZM55.9727 197.467C56.916 197.467 57.7135 197.781 58.3652 198.41C59.0169 199.039 59.3428 199.964 59.3428 201.186C59.3428 202.366 59.0557 203.341 58.4814 204.111C57.9072 204.882 57.0163 205.267 55.8086 205.267C54.8014 205.267 54.0016 204.927 53.4092 204.248C52.8167 203.564 52.5205 202.648 52.5205 201.5C52.5205 200.27 52.8327 199.29 53.457 198.561C54.0814 197.831 54.9199 197.467 55.9727 197.467ZM65.3857 197.679H66.7461C66.5729 198.148 66.1878 199.219 65.5908 200.892C65.1442 202.149 64.7705 203.175 64.4697 203.968C63.7588 205.836 63.2575 206.976 62.9658 207.386C62.6742 207.796 62.1729 208.001 61.4619 208.001C61.2887 208.001 61.1543 207.994 61.0586 207.98C60.9674 207.967 60.8535 207.942 60.7168 207.905V206.784C60.931 206.843 61.0859 206.88 61.1816 206.894C61.2773 206.907 61.3617 206.914 61.4346 206.914C61.6624 206.914 61.8288 206.875 61.9336 206.798C62.043 206.725 62.1341 206.634 62.207 206.524C62.2298 206.488 62.3118 206.301 62.4531 205.964C62.5944 205.627 62.6969 205.376 62.7607 205.212L60.0537 197.679H61.4482L63.4102 203.64L65.3857 197.679ZM71.709 197.679H72.9258V198.718C73.2174 198.358 73.4818 198.096 73.7188 197.932C74.1243 197.654 74.5846 197.515 75.0996 197.515C75.6829 197.515 76.1523 197.658 76.5078 197.945C76.7083 198.109 76.8906 198.351 77.0547 198.67C77.3281 198.278 77.6494 197.989 78.0186 197.802C78.3877 197.61 78.8024 197.515 79.2627 197.515C80.2471 197.515 80.917 197.87 81.2725 198.581C81.4639 198.964 81.5596 199.479 81.5596 200.126V205H80.2812V199.914C80.2812 199.426 80.1582 199.091 79.9121 198.909C79.6706 198.727 79.3743 198.636 79.0234 198.636C78.5404 198.636 78.1234 198.798 77.7725 199.121C77.4261 199.445 77.2529 199.985 77.2529 200.741V205H76.002V200.222C76.002 199.725 75.9427 199.363 75.8242 199.135C75.6374 198.793 75.2887 198.622 74.7783 198.622C74.3135 198.622 73.8896 198.802 73.5068 199.162C73.1286 199.522 72.9395 200.174 72.9395 201.117V205H71.709V197.679ZM86.4199 197.515C86.9395 197.515 87.443 197.638 87.9307 197.884C88.4183 198.125 88.7897 198.44 89.0449 198.827C89.291 199.196 89.4551 199.627 89.5371 200.119C89.61 200.456 89.6465 200.994 89.6465 201.732H84.2803C84.3031 202.475 84.4785 203.072 84.8066 203.523C85.1348 203.97 85.6429 204.193 86.3311 204.193C86.9736 204.193 87.4863 203.981 87.8691 203.558C88.0879 203.312 88.2428 203.027 88.334 202.703H89.5439C89.512 202.972 89.4049 203.273 89.2227 203.605C89.0449 203.934 88.8444 204.202 88.6211 204.412C88.2474 204.777 87.7848 205.023 87.2334 205.15C86.9372 205.223 86.6022 205.26 86.2285 205.26C85.3171 205.26 84.5446 204.929 83.9111 204.269C83.2777 203.603 82.9609 202.674 82.9609 201.479C82.9609 200.304 83.2799 199.349 83.918 198.615C84.556 197.882 85.39 197.515 86.4199 197.515ZM88.3818 200.755C88.3317 200.222 88.2155 199.796 88.0332 199.477C87.696 198.884 87.1331 198.588 86.3447 198.588C85.7796 198.588 85.3057 198.793 84.9229 199.203C84.54 199.609 84.3372 200.126 84.3145 200.755H88.3818ZM98.1094 197.515C98.6289 197.515 99.1325 197.638 99.6201 197.884C100.108 198.125 100.479 198.44 100.734 198.827C100.98 199.196 101.145 199.627 101.227 200.119C101.299 200.456 101.336 200.994 101.336 201.732H95.9697C95.9925 202.475 96.168 203.072 96.4961 203.523C96.8242 203.97 97.3324 204.193 98.0205 204.193C98.6631 204.193 99.1758 203.981 99.5586 203.558C99.7773 203.312 99.9323 203.027 100.023 202.703H101.233C101.201 202.972 101.094 203.273 100.912 203.605C100.734 203.934 100.534 204.202 100.311 204.412C99.9368 204.777 99.4743 205.023 98.9229 205.15C98.6266 205.223 98.2917 205.26 97.918 205.26C97.0065 205.26 96.234 204.929 95.6006 204.269C94.9671 203.603 94.6504 202.674 94.6504 201.479C94.6504 200.304 94.9694 199.349 95.6074 198.615C96.2454 197.882 97.0794 197.515 98.1094 197.515ZM100.071 200.755C100.021 200.222 99.9049 199.796 99.7227 199.477C99.3854 198.884 98.8226 198.588 98.0342 198.588C97.4691 198.588 96.9951 198.793 96.6123 199.203C96.2295 199.609 96.0267 200.126 96.0039 200.755H100.071ZM102.854 197.679H104.022V198.718C104.369 198.289 104.736 197.982 105.123 197.795C105.51 197.608 105.941 197.515 106.415 197.515C107.454 197.515 108.156 197.877 108.521 198.602C108.721 198.998 108.821 199.565 108.821 200.304V205H107.57V200.386C107.57 199.939 107.504 199.579 107.372 199.306C107.153 198.85 106.757 198.622 106.183 198.622C105.891 198.622 105.652 198.652 105.465 198.711C105.128 198.811 104.831 199.012 104.576 199.312C104.371 199.554 104.237 199.805 104.173 200.064C104.114 200.32 104.084 200.687 104.084 201.165V205H102.854V197.679ZM113.47 197.467C114.295 197.467 114.965 197.667 115.479 198.068C115.999 198.469 116.311 199.16 116.416 200.14H115.22C115.147 199.688 114.98 199.315 114.721 199.019C114.461 198.718 114.044 198.567 113.47 198.567C112.686 198.567 112.125 198.95 111.788 199.716C111.569 200.213 111.46 200.826 111.46 201.555C111.46 202.288 111.615 202.906 111.925 203.407C112.235 203.909 112.722 204.159 113.388 204.159C113.898 204.159 114.301 204.004 114.598 203.694C114.898 203.38 115.106 202.951 115.22 202.409H116.416C116.279 203.38 115.938 204.091 115.391 204.542C114.844 204.989 114.144 205.212 113.292 205.212C112.335 205.212 111.572 204.863 111.002 204.166C110.432 203.464 110.147 202.589 110.147 201.541C110.147 200.256 110.46 199.256 111.084 198.54C111.708 197.825 112.504 197.467 113.47 197.467ZM118.877 197.679V202.539C118.877 202.913 118.936 203.218 119.055 203.455C119.273 203.893 119.681 204.111 120.278 204.111C121.135 204.111 121.718 203.729 122.028 202.963C122.197 202.553 122.281 201.99 122.281 201.274V197.679H123.512V205H122.35L122.363 203.92C122.204 204.198 122.006 204.433 121.769 204.624C121.299 205.007 120.729 205.198 120.06 205.198C119.016 205.198 118.305 204.85 117.927 204.152C117.722 203.779 117.619 203.28 117.619 202.655V197.679H118.877ZM128.488 197.515C129.008 197.515 129.511 197.638 129.999 197.884C130.487 198.125 130.858 198.44 131.113 198.827C131.359 199.196 131.523 199.627 131.605 200.119C131.678 200.456 131.715 200.994 131.715 201.732H126.349C126.371 202.475 126.547 203.072 126.875 203.523C127.203 203.97 127.711 204.193 128.399 204.193C129.042 204.193 129.555 203.981 129.938 203.558C130.156 203.312 130.311 203.027 130.402 202.703H131.612C131.58 202.972 131.473 203.273 131.291 203.605C131.113 203.934 130.913 204.202 130.689 204.412C130.316 204.777 129.853 205.023 129.302 205.15C129.006 205.223 128.671 205.26 128.297 205.26C127.385 205.26 126.613 204.929 125.979 204.269C125.346 203.603 125.029 202.674 125.029 201.479C125.029 200.304 125.348 199.349 125.986 198.615C126.624 197.882 127.458 197.515 128.488 197.515ZM130.45 200.755C130.4 200.222 130.284 199.796 130.102 199.477C129.764 198.884 129.201 198.588 128.413 198.588C127.848 198.588 127.374 198.793 126.991 199.203C126.608 199.609 126.406 200.126 126.383 200.755H130.45ZM133.232 197.679H134.401V198.718C134.748 198.289 135.115 197.982 135.502 197.795C135.889 197.608 136.32 197.515 136.794 197.515C137.833 197.515 138.535 197.877 138.899 198.602C139.1 198.998 139.2 199.565 139.2 200.304V205H137.949V200.386C137.949 199.939 137.883 199.579 137.751 199.306C137.532 198.85 137.136 198.622 136.562 198.622C136.27 198.622 136.031 198.652 135.844 198.711C135.507 198.811 135.21 199.012 134.955 199.312C134.75 199.554 134.616 199.805 134.552 200.064C134.493 200.32 134.463 200.687 134.463 201.165V205H133.232V197.679ZM141.271 195.635H142.516V197.679H143.685V198.684H142.516V203.462C142.516 203.717 142.602 203.888 142.775 203.975C142.871 204.025 143.031 204.05 143.254 204.05C143.313 204.05 143.377 204.05 143.445 204.05C143.514 204.045 143.593 204.038 143.685 204.029V205C143.543 205.041 143.395 205.071 143.24 205.089C143.09 205.107 142.926 205.116 142.748 205.116C142.174 205.116 141.784 204.97 141.579 204.679C141.374 204.382 141.271 204 141.271 203.53V198.684H140.28V197.679H141.271V195.635ZM144.956 197.679H146.125V198.943C146.221 198.697 146.455 198.399 146.829 198.048C147.203 197.692 147.633 197.515 148.121 197.515C148.144 197.515 148.183 197.517 148.237 197.521C148.292 197.526 148.385 197.535 148.518 197.549V198.848C148.445 198.834 148.376 198.825 148.312 198.82C148.253 198.816 148.187 198.813 148.114 198.813C147.494 198.813 147.018 199.014 146.686 199.415C146.353 199.812 146.187 200.27 146.187 200.789V205H144.956V197.679ZM152.489 204.207C153.305 204.207 153.863 203.899 154.164 203.284C154.469 202.664 154.622 201.976 154.622 201.22C154.622 200.536 154.513 199.98 154.294 199.552C153.948 198.877 153.351 198.54 152.503 198.54C151.751 198.54 151.204 198.827 150.862 199.401C150.521 199.976 150.35 200.668 150.35 201.479C150.35 202.259 150.521 202.908 150.862 203.428C151.204 203.947 151.746 204.207 152.489 204.207ZM152.537 197.467C153.48 197.467 154.278 197.781 154.93 198.41C155.581 199.039 155.907 199.964 155.907 201.186C155.907 202.366 155.62 203.341 155.046 204.111C154.472 204.882 153.581 205.267 152.373 205.267C151.366 205.267 150.566 204.927 149.974 204.248C149.381 203.564 149.085 202.648 149.085 201.5C149.085 200.27 149.397 199.29 150.021 198.561C150.646 197.831 151.484 197.467 152.537 197.467ZM164.322 197.515C164.842 197.515 165.345 197.638 165.833 197.884C166.321 198.125 166.692 198.44 166.947 198.827C167.193 199.196 167.357 199.627 167.439 200.119C167.512 200.456 167.549 200.994 167.549 201.732H162.183C162.205 202.475 162.381 203.072 162.709 203.523C163.037 203.97 163.545 204.193 164.233 204.193C164.876 204.193 165.389 203.981 165.771 203.558C165.99 203.312 166.145 203.027 166.236 202.703H167.446C167.414 202.972 167.307 203.273 167.125 203.605C166.947 203.934 166.747 204.202 166.523 204.412C166.15 204.777 165.687 205.023 165.136 205.15C164.84 205.223 164.505 205.26 164.131 205.26C163.219 205.26 162.447 204.929 161.813 204.269C161.18 203.603 160.863 202.674 160.863 201.479C160.863 200.304 161.182 199.349 161.82 198.615C162.458 197.882 163.292 197.515 164.322 197.515ZM166.284 200.755C166.234 200.222 166.118 199.796 165.936 199.477C165.598 198.884 165.035 198.588 164.247 198.588C163.682 198.588 163.208 198.793 162.825 199.203C162.442 199.609 162.24 200.126 162.217 200.755H166.284ZM169.066 197.679H170.235V198.718C170.582 198.289 170.949 197.982 171.336 197.795C171.723 197.608 172.154 197.515 172.628 197.515C173.667 197.515 174.369 197.877 174.733 198.602C174.934 198.998 175.034 199.565 175.034 200.304V205H173.783V200.386C173.783 199.939 173.717 199.579 173.585 199.306C173.366 198.85 172.97 198.622 172.396 198.622C172.104 198.622 171.865 198.652 171.678 198.711C171.34 198.811 171.044 199.012 170.789 199.312C170.584 199.554 170.45 199.805 170.386 200.064C170.326 200.32 170.297 200.687 170.297 201.165V205H169.066V197.679ZM181.809 201.76C181.84 202.329 181.975 202.792 182.212 203.147C182.663 203.813 183.458 204.146 184.598 204.146C185.108 204.146 185.573 204.073 185.992 203.927C186.803 203.644 187.209 203.138 187.209 202.409C187.209 201.862 187.038 201.473 186.696 201.24C186.35 201.012 185.808 200.814 185.069 200.646L183.709 200.338C182.82 200.137 182.191 199.916 181.822 199.675C181.184 199.256 180.865 198.629 180.865 197.795C180.865 196.893 181.177 196.152 181.802 195.573C182.426 194.994 183.31 194.705 184.454 194.705C185.507 194.705 186.4 194.96 187.134 195.471C187.872 195.977 188.241 196.788 188.241 197.904H186.963C186.895 197.367 186.749 196.954 186.525 196.667C186.111 196.143 185.407 195.881 184.413 195.881C183.611 195.881 183.035 196.049 182.684 196.387C182.333 196.724 182.157 197.116 182.157 197.562C182.157 198.055 182.362 198.415 182.772 198.643C183.041 198.788 183.65 198.971 184.598 199.189L186.006 199.511C186.685 199.666 187.209 199.878 187.578 200.146C188.216 200.616 188.535 201.297 188.535 202.19C188.535 203.302 188.13 204.098 187.318 204.576C186.512 205.055 185.573 205.294 184.502 205.294C183.253 205.294 182.276 204.975 181.569 204.337C180.863 203.703 180.517 202.844 180.53 201.76H181.809ZM191.037 203.052C191.037 203.407 191.167 203.688 191.427 203.893C191.687 204.098 191.994 204.2 192.35 204.2C192.783 204.2 193.202 204.1 193.607 203.899C194.291 203.567 194.633 203.022 194.633 202.266V201.274C194.482 201.37 194.289 201.45 194.052 201.514C193.815 201.577 193.582 201.623 193.354 201.65L192.609 201.746C192.163 201.805 191.828 201.899 191.604 202.026C191.226 202.241 191.037 202.582 191.037 203.052ZM194.018 200.563C194.3 200.527 194.489 200.409 194.585 200.208C194.64 200.099 194.667 199.941 194.667 199.736C194.667 199.317 194.517 199.014 194.216 198.827C193.92 198.636 193.493 198.54 192.938 198.54C192.295 198.54 191.839 198.713 191.57 199.06C191.42 199.251 191.322 199.536 191.276 199.914H190.128C190.151 199.012 190.442 198.385 191.003 198.034C191.568 197.679 192.222 197.501 192.965 197.501C193.826 197.501 194.526 197.665 195.063 197.993C195.597 198.321 195.863 198.832 195.863 199.524V203.742C195.863 203.87 195.888 203.972 195.938 204.05C195.993 204.127 196.105 204.166 196.273 204.166C196.328 204.166 196.39 204.164 196.458 204.159C196.526 204.15 196.599 204.139 196.677 204.125V205.034C196.485 205.089 196.34 205.123 196.239 205.137C196.139 205.15 196.002 205.157 195.829 205.157C195.405 205.157 195.098 205.007 194.906 204.706C194.806 204.547 194.735 204.321 194.694 204.029C194.444 204.357 194.084 204.642 193.614 204.884C193.145 205.125 192.628 205.246 192.062 205.246C191.383 205.246 190.827 205.041 190.395 204.631C189.966 204.216 189.752 203.699 189.752 203.079C189.752 202.4 189.964 201.874 190.388 201.5C190.812 201.126 191.368 200.896 192.056 200.81L194.018 200.563ZM197.887 197.679H199.056V198.718C199.402 198.289 199.769 197.982 200.156 197.795C200.544 197.608 200.974 197.515 201.448 197.515C202.487 197.515 203.189 197.877 203.554 198.602C203.754 198.998 203.854 199.565 203.854 200.304V205H202.604V200.386C202.604 199.939 202.537 199.579 202.405 199.306C202.187 198.85 201.79 198.622 201.216 198.622C200.924 198.622 200.685 198.652 200.498 198.711C200.161 198.811 199.865 199.012 199.609 199.312C199.404 199.554 199.27 199.805 199.206 200.064C199.147 200.32 199.117 200.687 199.117 201.165V205H197.887V197.679ZM205.926 195.635H207.17V197.679H208.339V198.684H207.17V203.462C207.17 203.717 207.257 203.888 207.43 203.975C207.525 204.025 207.685 204.05 207.908 204.05C207.967 204.05 208.031 204.05 208.1 204.05C208.168 204.045 208.248 204.038 208.339 204.029V205C208.198 205.041 208.049 205.071 207.895 205.089C207.744 205.107 207.58 205.116 207.402 205.116C206.828 205.116 206.438 204.97 206.233 204.679C206.028 204.382 205.926 204 205.926 203.53V198.684H204.935V197.679H205.926V195.635ZM210.52 203.052C210.52 203.407 210.649 203.688 210.909 203.893C211.169 204.098 211.477 204.2 211.832 204.2C212.265 204.2 212.684 204.1 213.09 203.899C213.773 203.567 214.115 203.022 214.115 202.266V201.274C213.965 201.37 213.771 201.45 213.534 201.514C213.297 201.577 213.065 201.623 212.837 201.65L212.092 201.746C211.645 201.805 211.31 201.899 211.087 202.026C210.709 202.241 210.52 202.582 210.52 203.052ZM213.5 200.563C213.783 200.527 213.972 200.409 214.067 200.208C214.122 200.099 214.149 199.941 214.149 199.736C214.149 199.317 213.999 199.014 213.698 198.827C213.402 198.636 212.976 198.54 212.42 198.54C211.777 198.54 211.322 198.713 211.053 199.06C210.902 199.251 210.804 199.536 210.759 199.914H209.61C209.633 199.012 209.925 198.385 210.485 198.034C211.05 197.679 211.704 197.501 212.447 197.501C213.309 197.501 214.008 197.665 214.546 197.993C215.079 198.321 215.346 198.832 215.346 199.524V203.742C215.346 203.87 215.371 203.972 215.421 204.05C215.476 204.127 215.587 204.166 215.756 204.166C215.811 204.166 215.872 204.164 215.94 204.159C216.009 204.15 216.082 204.139 216.159 204.125V205.034C215.968 205.089 215.822 205.123 215.722 205.137C215.621 205.15 215.485 205.157 215.312 205.157C214.888 205.157 214.58 205.007 214.389 204.706C214.288 204.547 214.218 204.321 214.177 204.029C213.926 204.357 213.566 204.642 213.097 204.884C212.627 205.125 212.11 205.246 211.545 205.246C210.866 205.246 210.31 205.041 209.877 204.631C209.449 204.216 209.234 203.699 209.234 203.079C209.234 202.4 209.446 201.874 209.87 201.5C210.294 201.126 210.85 200.896 211.538 200.81L213.5 200.563ZM221.56 194.958H228.525V196.188H222.92V199.237H227.849V200.434H222.92V205H221.56V194.958ZM232.873 197.515C233.393 197.515 233.896 197.638 234.384 197.884C234.871 198.125 235.243 198.44 235.498 198.827C235.744 199.196 235.908 199.627 235.99 200.119C236.063 200.456 236.1 200.994 236.1 201.732H230.733C230.756 202.475 230.932 203.072 231.26 203.523C231.588 203.97 232.096 204.193 232.784 204.193C233.427 204.193 233.939 203.981 234.322 203.558C234.541 203.312 234.696 203.027 234.787 202.703H235.997C235.965 202.972 235.858 203.273 235.676 203.605C235.498 203.934 235.298 204.202 235.074 204.412C234.701 204.777 234.238 205.023 233.687 205.15C233.39 205.223 233.055 205.26 232.682 205.26C231.77 205.26 230.998 204.929 230.364 204.269C229.731 203.603 229.414 202.674 229.414 201.479C229.414 200.304 229.733 199.349 230.371 198.615C231.009 197.882 231.843 197.515 232.873 197.515ZM234.835 200.755C234.785 200.222 234.669 199.796 234.486 199.477C234.149 198.884 233.586 198.588 232.798 198.588C232.233 198.588 231.759 198.793 231.376 199.203C230.993 199.609 230.79 200.126 230.768 200.755H234.835ZM237.877 206.429C238.191 206.374 238.412 206.153 238.54 205.766C238.608 205.561 238.643 205.362 238.643 205.171C238.643 205.139 238.64 205.109 238.636 205.082C238.636 205.059 238.631 205.032 238.622 205H237.877V203.51H239.34V204.891C239.34 205.433 239.23 205.909 239.012 206.319C238.793 206.729 238.415 206.982 237.877 207.078V206.429ZM249.963 200.885L248.438 196.448L246.818 200.885H249.963ZM247.728 194.958H249.266L252.909 205H251.419L250.4 201.992H246.429L245.342 205H243.947L247.728 194.958ZM254.017 197.679H255.186V198.943C255.281 198.697 255.516 198.399 255.89 198.048C256.263 197.692 256.694 197.515 257.182 197.515C257.204 197.515 257.243 197.517 257.298 197.521C257.353 197.526 257.446 197.535 257.578 197.549V198.848C257.505 198.834 257.437 198.825 257.373 198.82C257.314 198.816 257.248 198.813 257.175 198.813C256.555 198.813 256.079 199.014 255.746 199.415C255.413 199.812 255.247 200.27 255.247 200.789V205H254.017V197.679ZM261.229 197.549C261.803 197.549 262.304 197.69 262.732 197.973C262.965 198.132 263.202 198.365 263.443 198.67V197.747H264.578V204.405C264.578 205.335 264.441 206.069 264.168 206.606C263.658 207.6 262.694 208.097 261.276 208.097C260.488 208.097 259.825 207.919 259.287 207.563C258.749 207.213 258.449 206.661 258.385 205.909H259.636C259.695 206.237 259.813 206.49 259.991 206.668C260.269 206.941 260.707 207.078 261.304 207.078C262.247 207.078 262.865 206.745 263.156 206.08C263.329 205.688 263.409 204.989 263.396 203.981C263.149 204.355 262.853 204.633 262.507 204.815C262.16 204.998 261.702 205.089 261.133 205.089C260.34 205.089 259.645 204.809 259.048 204.248C258.455 203.683 258.159 202.751 258.159 201.452C258.159 200.226 258.458 199.269 259.055 198.581C259.656 197.893 260.381 197.549 261.229 197.549ZM263.443 201.309C263.443 200.402 263.257 199.729 262.883 199.292C262.509 198.854 262.033 198.636 261.454 198.636C260.588 198.636 259.996 199.041 259.677 199.853C259.508 200.285 259.424 200.853 259.424 201.555C259.424 202.38 259.59 203.008 259.923 203.441C260.26 203.87 260.711 204.084 261.276 204.084C262.16 204.084 262.783 203.685 263.143 202.888C263.343 202.437 263.443 201.91 263.443 201.309ZM269.486 197.515C270.006 197.515 270.509 197.638 270.997 197.884C271.485 198.125 271.856 198.44 272.111 198.827C272.357 199.196 272.521 199.627 272.604 200.119C272.676 200.456 272.713 200.994 272.713 201.732H267.347C267.369 202.475 267.545 203.072 267.873 203.523C268.201 203.97 268.709 204.193 269.397 204.193C270.04 204.193 270.553 203.981 270.936 203.558C271.154 203.312 271.309 203.027 271.4 202.703H272.61C272.578 202.972 272.471 203.273 272.289 203.605C272.111 203.934 271.911 204.202 271.688 204.412C271.314 204.777 270.851 205.023 270.3 205.15C270.004 205.223 269.669 205.26 269.295 205.26C268.383 205.26 267.611 204.929 266.978 204.269C266.344 203.603 266.027 202.674 266.027 201.479C266.027 200.304 266.346 199.349 266.984 198.615C267.622 197.882 268.456 197.515 269.486 197.515ZM271.448 200.755C271.398 200.222 271.282 199.796 271.1 199.477C270.762 198.884 270.2 198.588 269.411 198.588C268.846 198.588 268.372 198.793 267.989 199.203C267.606 199.609 267.404 200.126 267.381 200.755H271.448ZM274.23 197.679H275.399V198.718C275.746 198.289 276.113 197.982 276.5 197.795C276.887 197.608 277.318 197.515 277.792 197.515C278.831 197.515 279.533 197.877 279.897 198.602C280.098 198.998 280.198 199.565 280.198 200.304V205H278.947V200.386C278.947 199.939 278.881 199.579 278.749 199.306C278.53 198.85 278.134 198.622 277.56 198.622C277.268 198.622 277.029 198.652 276.842 198.711C276.505 198.811 276.208 199.012 275.953 199.312C275.748 199.554 275.614 199.805 275.55 200.064C275.491 200.32 275.461 200.687 275.461 201.165V205H274.23V197.679ZM282.27 195.635H283.514V197.679H284.683V198.684H283.514V203.462C283.514 203.717 283.6 203.888 283.773 203.975C283.869 204.025 284.029 204.05 284.252 204.05C284.311 204.05 284.375 204.05 284.443 204.05C284.512 204.045 284.591 204.038 284.683 204.029V205C284.541 205.041 284.393 205.071 284.238 205.089C284.088 205.107 283.924 205.116 283.746 205.116C283.172 205.116 282.782 204.97 282.577 204.679C282.372 204.382 282.27 204 282.27 203.53V198.684H281.278V197.679H282.27V195.635ZM285.92 197.713H287.171V205H285.92V197.713ZM285.92 194.958H287.171V196.353H285.92V194.958ZM289.037 197.679H290.206V198.718C290.552 198.289 290.919 197.982 291.307 197.795C291.694 197.608 292.125 197.515 292.599 197.515C293.638 197.515 294.34 197.877 294.704 198.602C294.905 198.998 295.005 199.565 295.005 200.304V205H293.754V200.386C293.754 199.939 293.688 199.579 293.556 199.306C293.337 198.85 292.94 198.622 292.366 198.622C292.075 198.622 291.835 198.652 291.648 198.711C291.311 198.811 291.015 199.012 290.76 199.312C290.555 199.554 290.42 199.805 290.356 200.064C290.297 200.32 290.268 200.687 290.268 201.165V205H289.037V197.679ZM297.773 203.052C297.773 203.407 297.903 203.688 298.163 203.893C298.423 204.098 298.73 204.2 299.086 204.2C299.519 204.2 299.938 204.1 300.344 203.899C301.027 203.567 301.369 203.022 301.369 202.266V201.274C301.219 201.37 301.025 201.45 300.788 201.514C300.551 201.577 300.319 201.623 300.091 201.65L299.346 201.746C298.899 201.805 298.564 201.899 298.341 202.026C297.963 202.241 297.773 202.582 297.773 203.052ZM300.754 200.563C301.036 200.527 301.226 200.409 301.321 200.208C301.376 200.099 301.403 199.941 301.403 199.736C301.403 199.317 301.253 199.014 300.952 198.827C300.656 198.636 300.23 198.54 299.674 198.54C299.031 198.54 298.576 198.713 298.307 199.06C298.156 199.251 298.058 199.536 298.013 199.914H296.864C296.887 199.012 297.179 198.385 297.739 198.034C298.304 197.679 298.958 197.501 299.701 197.501C300.562 197.501 301.262 197.665 301.8 197.993C302.333 198.321 302.6 198.832 302.6 199.524V203.742C302.6 203.87 302.625 203.972 302.675 204.05C302.729 204.127 302.841 204.166 303.01 204.166C303.064 204.166 303.126 204.164 303.194 204.159C303.263 204.15 303.336 204.139 303.413 204.125V205.034C303.222 205.089 303.076 205.123 302.976 205.137C302.875 205.15 302.739 205.157 302.565 205.157C302.142 205.157 301.834 205.007 301.643 204.706C301.542 204.547 301.472 204.321 301.431 204.029C301.18 204.357 300.82 204.642 300.351 204.884C299.881 205.125 299.364 205.246 298.799 205.246C298.12 205.246 297.564 205.041 297.131 204.631C296.702 204.216 296.488 203.699 296.488 203.079C296.488 202.4 296.7 201.874 297.124 201.5C297.548 201.126 298.104 200.896 298.792 200.81L300.754 200.563ZM304.917 203.51H306.346V205H304.917V203.51Z" fill="black"/>
<rect x="8.5" y="65.5" width="328" height="175" stroke="black"/>
<path d="M41.6464 78.3536C41.8417 78.5488 42.1583 78.5488 42.3536 78.3536L45.5355 75.1716C45.7308 74.9763 45.7308 74.6597 45.5355 74.4645C45.3403 74.2692 45.0237 74.2692 44.8284 74.4645L42 77.2929L39.1716 74.4645C38.9763 74.2692 38.6597 74.2692 38.4645 74.4645C38.2692 74.6597 38.2692 74.9763 38.4645 75.1716L41.6464 78.3536ZM42.5 78L42.5 9L41.5 9L41.5 78L42.5 78Z" fill="black"/>
</svg>
